%FSLAX45Y45*%
G04 Gerber Fmt 4.5, Leading zero omitted, Abs format (unit mm)*
G04 Created by KiCad (PCBNEW 5.99.0+really5.1.12+dfsg1-1) date 2022-01-12 10:46:13*
%MOMM*%
%LPD*%
G01*
G04 APERTURE LIST*
%TA.AperFunction,Profile*%
%ADD10C,0.050000*%
%TD*%
%ADD11C,0.200000*%
%ADD12C,0.300000*%
G04 APERTURE END LIST*
D10*
X13974064Y-5500000D02*
X15825396Y-5499688D01*
X15825396Y-5499688D02*
G75*
G02*
X13974064Y-5500000I-925397J-1600312D01*
G01*
X10000000Y-5375000D02*
G75*
G02*
X10375000Y-5000000I375000J0D01*
G01*
X19625000Y-5000000D02*
G75*
G02*
X20000000Y-5375000I0J-375000D01*
G01*
X20000000Y-12525000D02*
G75*
G02*
X19625000Y-12900000I-375000J0D01*
G01*
X10375000Y-12900000D02*
G75*
G02*
X10000000Y-12525000I0J375000D01*
G01*
X10375000Y-12900000D02*
X19625000Y-12900000D01*
X20000000Y-5375000D02*
X20000000Y-12525000D01*
X10375000Y-5000000D02*
X19625000Y-5000000D01*
X10000000Y-5375000D02*
X10000000Y-12525000D01*
D11*
X10700550Y-6204000D02*
X10800550Y-6304000D01*
X10800550Y-6204000D02*
X10700550Y-6304000D01*
X10700550Y-8687600D02*
X10800550Y-8787600D01*
X10800550Y-8687600D02*
X10700550Y-8787600D01*
X11208550Y-6204000D02*
X11308550Y-6304000D01*
X11308550Y-6204000D02*
X11208550Y-6304000D01*
X11208550Y-8687600D02*
X11308550Y-8787600D01*
X11308550Y-8687600D02*
X11208550Y-8787600D01*
X13852944Y-9760750D02*
X13952944Y-9860750D01*
X13952944Y-9760750D02*
X13852944Y-9860750D01*
X18288800Y-6204000D02*
X18388800Y-6304000D01*
X18388800Y-6204000D02*
X18288800Y-6304000D01*
X18288800Y-8687600D02*
X18388800Y-8787600D01*
X18388800Y-8687600D02*
X18288800Y-8787600D01*
X18796800Y-6204000D02*
X18896800Y-6304000D01*
X18896800Y-6204000D02*
X18796800Y-6304000D01*
X18796800Y-8687600D02*
X18896800Y-8787600D01*
X18896800Y-8687600D02*
X18796800Y-8787600D01*
X10500000Y-5375000D02*
G75*
G03*
X10500000Y-5375000I-125000J0D01*
G01*
X10500000Y-11175000D02*
G75*
G03*
X10500000Y-11175000I-125000J0D01*
G01*
X19750000Y-5375000D02*
G75*
G03*
X19750000Y-5375000I-125000J0D01*
G01*
X19750000Y-11175000D02*
G75*
G03*
X19750000Y-11175000I-125000J0D01*
G01*
X12321810Y-5332322D02*
X12321810Y-5662322D01*
X12156810Y-5497322D02*
X12486810Y-5497322D01*
X12321810Y-8507322D02*
X12321810Y-8837322D01*
X12156810Y-8672322D02*
X12486810Y-8672322D01*
X13521944Y-9772750D02*
X13521944Y-10102750D01*
X13356944Y-9937750D02*
X13686944Y-9937750D01*
X13521944Y-12312750D02*
X13521944Y-12642750D01*
X13356944Y-12477750D02*
X13686944Y-12477750D01*
X16061944Y-9772750D02*
X16061944Y-10102750D01*
X15896944Y-9937750D02*
X16226944Y-9937750D01*
X16061944Y-12312750D02*
X16061944Y-12642750D01*
X15896944Y-12477750D02*
X16226944Y-12477750D01*
X17655810Y-5332322D02*
X17655810Y-5662322D01*
X17490810Y-5497322D02*
X17820810Y-5497322D01*
X17655810Y-8507322D02*
X17655810Y-8837322D01*
X17490810Y-8672322D02*
X17820810Y-8672322D01*
D12*
X10283928Y-13368214D02*
X10283928Y-13068214D01*
X10355357Y-13068214D01*
X10398214Y-13082500D01*
X10426786Y-13111071D01*
X10441071Y-13139643D01*
X10455357Y-13196786D01*
X10455357Y-13239643D01*
X10441071Y-13296786D01*
X10426786Y-13325357D01*
X10398214Y-13353929D01*
X10355357Y-13368214D01*
X10283928Y-13368214D01*
X10583928Y-13368214D02*
X10583928Y-13168214D01*
X10583928Y-13225357D02*
X10598214Y-13196786D01*
X10612500Y-13182500D01*
X10641071Y-13168214D01*
X10669643Y-13168214D01*
X10769643Y-13368214D02*
X10769643Y-13168214D01*
X10769643Y-13068214D02*
X10755357Y-13082500D01*
X10769643Y-13096786D01*
X10783928Y-13082500D01*
X10769643Y-13068214D01*
X10769643Y-13096786D01*
X10955357Y-13368214D02*
X10926786Y-13353929D01*
X10912500Y-13325357D01*
X10912500Y-13068214D01*
X11112500Y-13368214D02*
X11083928Y-13353929D01*
X11069643Y-13325357D01*
X11069643Y-13068214D01*
X11455357Y-13368214D02*
X11455357Y-13068214D01*
X11555357Y-13282500D01*
X11655357Y-13068214D01*
X11655357Y-13368214D01*
X11926786Y-13368214D02*
X11926786Y-13211071D01*
X11912500Y-13182500D01*
X11883928Y-13168214D01*
X11826786Y-13168214D01*
X11798214Y-13182500D01*
X11926786Y-13353929D02*
X11898214Y-13368214D01*
X11826786Y-13368214D01*
X11798214Y-13353929D01*
X11783928Y-13325357D01*
X11783928Y-13296786D01*
X11798214Y-13268214D01*
X11826786Y-13253929D01*
X11898214Y-13253929D01*
X11926786Y-13239643D01*
X12069643Y-13168214D02*
X12069643Y-13468214D01*
X12069643Y-13182500D02*
X12098214Y-13168214D01*
X12155357Y-13168214D01*
X12183928Y-13182500D01*
X12198214Y-13196786D01*
X12212500Y-13225357D01*
X12212500Y-13311071D01*
X12198214Y-13339643D01*
X12183928Y-13353929D01*
X12155357Y-13368214D01*
X12098214Y-13368214D01*
X12069643Y-13353929D01*
X12341071Y-13339643D02*
X12355357Y-13353929D01*
X12341071Y-13368214D01*
X12326786Y-13353929D01*
X12341071Y-13339643D01*
X12341071Y-13368214D01*
X12341071Y-13182500D02*
X12355357Y-13196786D01*
X12341071Y-13211071D01*
X12326786Y-13196786D01*
X12341071Y-13182500D01*
X12341071Y-13211071D01*
X9897500Y-13812500D02*
X9997500Y-13912500D01*
X9997500Y-13812500D02*
X9897500Y-13912500D01*
X10441071Y-13998214D02*
X10269643Y-13998214D01*
X10355357Y-13998214D02*
X10355357Y-13698214D01*
X10326786Y-13741071D01*
X10298214Y-13769643D01*
X10269643Y-13783929D01*
X10569643Y-13969643D02*
X10583928Y-13983929D01*
X10569643Y-13998214D01*
X10555357Y-13983929D01*
X10569643Y-13969643D01*
X10569643Y-13998214D01*
X10769643Y-13698214D02*
X10798214Y-13698214D01*
X10826786Y-13712500D01*
X10841071Y-13726786D01*
X10855357Y-13755357D01*
X10869643Y-13812500D01*
X10869643Y-13883929D01*
X10855357Y-13941071D01*
X10841071Y-13969643D01*
X10826786Y-13983929D01*
X10798214Y-13998214D01*
X10769643Y-13998214D01*
X10741071Y-13983929D01*
X10726786Y-13969643D01*
X10712500Y-13941071D01*
X10698214Y-13883929D01*
X10698214Y-13812500D01*
X10712500Y-13755357D01*
X10726786Y-13726786D01*
X10741071Y-13712500D01*
X10769643Y-13698214D01*
X11055357Y-13698214D02*
X11083928Y-13698214D01*
X11112500Y-13712500D01*
X11126786Y-13726786D01*
X11141071Y-13755357D01*
X11155357Y-13812500D01*
X11155357Y-13883929D01*
X11141071Y-13941071D01*
X11126786Y-13969643D01*
X11112500Y-13983929D01*
X11083928Y-13998214D01*
X11055357Y-13998214D01*
X11026786Y-13983929D01*
X11012500Y-13969643D01*
X10998214Y-13941071D01*
X10983928Y-13883929D01*
X10983928Y-13812500D01*
X10998214Y-13755357D01*
X11012500Y-13726786D01*
X11026786Y-13712500D01*
X11055357Y-13698214D01*
X11341071Y-13698214D02*
X11369643Y-13698214D01*
X11398214Y-13712500D01*
X11412500Y-13726786D01*
X11426786Y-13755357D01*
X11441071Y-13812500D01*
X11441071Y-13883929D01*
X11426786Y-13941071D01*
X11412500Y-13969643D01*
X11398214Y-13983929D01*
X11369643Y-13998214D01*
X11341071Y-13998214D01*
X11312500Y-13983929D01*
X11298214Y-13969643D01*
X11283928Y-13941071D01*
X11269643Y-13883929D01*
X11269643Y-13812500D01*
X11283928Y-13755357D01*
X11298214Y-13726786D01*
X11312500Y-13712500D01*
X11341071Y-13698214D01*
X11569643Y-13998214D02*
X11569643Y-13798214D01*
X11569643Y-13826786D02*
X11583928Y-13812500D01*
X11612500Y-13798214D01*
X11655357Y-13798214D01*
X11683928Y-13812500D01*
X11698214Y-13841071D01*
X11698214Y-13998214D01*
X11698214Y-13841071D02*
X11712500Y-13812500D01*
X11741071Y-13798214D01*
X11783928Y-13798214D01*
X11812500Y-13812500D01*
X11826786Y-13841071D01*
X11826786Y-13998214D01*
X11969643Y-13998214D02*
X11969643Y-13798214D01*
X11969643Y-13826786D02*
X11983928Y-13812500D01*
X12012500Y-13798214D01*
X12055357Y-13798214D01*
X12083928Y-13812500D01*
X12098214Y-13841071D01*
X12098214Y-13998214D01*
X12098214Y-13841071D02*
X12112500Y-13812500D01*
X12141071Y-13798214D01*
X12183928Y-13798214D01*
X12212500Y-13812500D01*
X12226786Y-13841071D01*
X12226786Y-13998214D01*
X12812500Y-13683929D02*
X12555357Y-14069643D01*
X13198214Y-13698214D02*
X13226786Y-13698214D01*
X13255357Y-13712500D01*
X13269643Y-13726786D01*
X13283928Y-13755357D01*
X13298214Y-13812500D01*
X13298214Y-13883929D01*
X13283928Y-13941071D01*
X13269643Y-13969643D01*
X13255357Y-13983929D01*
X13226786Y-13998214D01*
X13198214Y-13998214D01*
X13169643Y-13983929D01*
X13155357Y-13969643D01*
X13141071Y-13941071D01*
X13126786Y-13883929D01*
X13126786Y-13812500D01*
X13141071Y-13755357D01*
X13155357Y-13726786D01*
X13169643Y-13712500D01*
X13198214Y-13698214D01*
X13426786Y-13969643D02*
X13441071Y-13983929D01*
X13426786Y-13998214D01*
X13412500Y-13983929D01*
X13426786Y-13969643D01*
X13426786Y-13998214D01*
X13626786Y-13698214D02*
X13655357Y-13698214D01*
X13683928Y-13712500D01*
X13698214Y-13726786D01*
X13712500Y-13755357D01*
X13726786Y-13812500D01*
X13726786Y-13883929D01*
X13712500Y-13941071D01*
X13698214Y-13969643D01*
X13683928Y-13983929D01*
X13655357Y-13998214D01*
X13626786Y-13998214D01*
X13598214Y-13983929D01*
X13583928Y-13969643D01*
X13569643Y-13941071D01*
X13555357Y-13883929D01*
X13555357Y-13812500D01*
X13569643Y-13755357D01*
X13583928Y-13726786D01*
X13598214Y-13712500D01*
X13626786Y-13698214D01*
X13826786Y-13698214D02*
X14012500Y-13698214D01*
X13912500Y-13812500D01*
X13955357Y-13812500D01*
X13983928Y-13826786D01*
X13998214Y-13841071D01*
X14012500Y-13869643D01*
X14012500Y-13941071D01*
X13998214Y-13969643D01*
X13983928Y-13983929D01*
X13955357Y-13998214D01*
X13869643Y-13998214D01*
X13841071Y-13983929D01*
X13826786Y-13969643D01*
X14155357Y-13998214D02*
X14212500Y-13998214D01*
X14241071Y-13983929D01*
X14255357Y-13969643D01*
X14283928Y-13926786D01*
X14298214Y-13869643D01*
X14298214Y-13755357D01*
X14283928Y-13726786D01*
X14269643Y-13712500D01*
X14241071Y-13698214D01*
X14183928Y-13698214D01*
X14155357Y-13712500D01*
X14141071Y-13726786D01*
X14126786Y-13755357D01*
X14126786Y-13826786D01*
X14141071Y-13855357D01*
X14155357Y-13869643D01*
X14183928Y-13883929D01*
X14241071Y-13883929D01*
X14269643Y-13869643D01*
X14283928Y-13855357D01*
X14298214Y-13826786D01*
X14555357Y-13798214D02*
X14555357Y-13998214D01*
X14483928Y-13683929D02*
X14412500Y-13898214D01*
X14598214Y-13898214D01*
X14698214Y-13698214D02*
X14698214Y-13755357D01*
X14812500Y-13698214D02*
X14812500Y-13755357D01*
X15255357Y-14112500D02*
X15241071Y-14098214D01*
X15212500Y-14055357D01*
X15198214Y-14026786D01*
X15183928Y-13983929D01*
X15169643Y-13912500D01*
X15169643Y-13855357D01*
X15183928Y-13783929D01*
X15198214Y-13741071D01*
X15212500Y-13712500D01*
X15241071Y-13669643D01*
X15255357Y-13655357D01*
X15383928Y-13998214D02*
X15441071Y-13998214D01*
X15469643Y-13983929D01*
X15483928Y-13969643D01*
X15512500Y-13926786D01*
X15526786Y-13869643D01*
X15526786Y-13755357D01*
X15512500Y-13726786D01*
X15498214Y-13712500D01*
X15469643Y-13698214D01*
X15412500Y-13698214D01*
X15383928Y-13712500D01*
X15369643Y-13726786D01*
X15355357Y-13755357D01*
X15355357Y-13826786D01*
X15369643Y-13855357D01*
X15383928Y-13869643D01*
X15412500Y-13883929D01*
X15469643Y-13883929D01*
X15498214Y-13869643D01*
X15512500Y-13855357D01*
X15526786Y-13826786D01*
X15883928Y-13998214D02*
X15883928Y-13698214D01*
X16012500Y-13998214D02*
X16012500Y-13841071D01*
X15998214Y-13812500D01*
X15969643Y-13798214D01*
X15926786Y-13798214D01*
X15898214Y-13812500D01*
X15883928Y-13826786D01*
X16198214Y-13998214D02*
X16169643Y-13983929D01*
X16155357Y-13969643D01*
X16141071Y-13941071D01*
X16141071Y-13855357D01*
X16155357Y-13826786D01*
X16169643Y-13812500D01*
X16198214Y-13798214D01*
X16241071Y-13798214D01*
X16269643Y-13812500D01*
X16283928Y-13826786D01*
X16298214Y-13855357D01*
X16298214Y-13941071D01*
X16283928Y-13969643D01*
X16269643Y-13983929D01*
X16241071Y-13998214D01*
X16198214Y-13998214D01*
X16469643Y-13998214D02*
X16441071Y-13983929D01*
X16426786Y-13955357D01*
X16426786Y-13698214D01*
X16698214Y-13983929D02*
X16669643Y-13998214D01*
X16612500Y-13998214D01*
X16583928Y-13983929D01*
X16569643Y-13955357D01*
X16569643Y-13841071D01*
X16583928Y-13812500D01*
X16612500Y-13798214D01*
X16669643Y-13798214D01*
X16698214Y-13812500D01*
X16712500Y-13841071D01*
X16712500Y-13869643D01*
X16569643Y-13898214D01*
X16826786Y-13983929D02*
X16855357Y-13998214D01*
X16912500Y-13998214D01*
X16941071Y-13983929D01*
X16955357Y-13955357D01*
X16955357Y-13941071D01*
X16941071Y-13912500D01*
X16912500Y-13898214D01*
X16869643Y-13898214D01*
X16841071Y-13883929D01*
X16826786Y-13855357D01*
X16826786Y-13841071D01*
X16841071Y-13812500D01*
X16869643Y-13798214D01*
X16912500Y-13798214D01*
X16941071Y-13812500D01*
X17055357Y-14112500D02*
X17069643Y-14098214D01*
X17098214Y-14055357D01*
X17112500Y-14026786D01*
X17126786Y-13983929D01*
X17141071Y-13912500D01*
X17141071Y-13855357D01*
X17126786Y-13783929D01*
X17112500Y-13741071D01*
X17098214Y-13712500D01*
X17069643Y-13669643D01*
X17055357Y-13655357D01*
X17598214Y-14112500D02*
X17583928Y-14098214D01*
X17555357Y-14055357D01*
X17541071Y-14026786D01*
X17526786Y-13983929D01*
X17512500Y-13912500D01*
X17512500Y-13855357D01*
X17526786Y-13783929D01*
X17541071Y-13741071D01*
X17555357Y-13712500D01*
X17583928Y-13669643D01*
X17598214Y-13655357D01*
X17712500Y-13798214D02*
X17712500Y-13998214D01*
X17712500Y-13826786D02*
X17726786Y-13812500D01*
X17755357Y-13798214D01*
X17798214Y-13798214D01*
X17826786Y-13812500D01*
X17841071Y-13841071D01*
X17841071Y-13998214D01*
X18026786Y-13998214D02*
X17998214Y-13983929D01*
X17983928Y-13969643D01*
X17969643Y-13941071D01*
X17969643Y-13855357D01*
X17983928Y-13826786D01*
X17998214Y-13812500D01*
X18026786Y-13798214D01*
X18069643Y-13798214D01*
X18098214Y-13812500D01*
X18112500Y-13826786D01*
X18126786Y-13855357D01*
X18126786Y-13941071D01*
X18112500Y-13969643D01*
X18098214Y-13983929D01*
X18069643Y-13998214D01*
X18026786Y-13998214D01*
X18212500Y-13798214D02*
X18326786Y-13798214D01*
X18255357Y-13698214D02*
X18255357Y-13955357D01*
X18269643Y-13983929D01*
X18298214Y-13998214D01*
X18326786Y-13998214D01*
X18655357Y-13798214D02*
X18655357Y-14098214D01*
X18655357Y-13812500D02*
X18683928Y-13798214D01*
X18741071Y-13798214D01*
X18769643Y-13812500D01*
X18783928Y-13826786D01*
X18798214Y-13855357D01*
X18798214Y-13941071D01*
X18783928Y-13969643D01*
X18769643Y-13983929D01*
X18741071Y-13998214D01*
X18683928Y-13998214D01*
X18655357Y-13983929D01*
X18969643Y-13998214D02*
X18941071Y-13983929D01*
X18926786Y-13955357D01*
X18926786Y-13698214D01*
X19212500Y-13998214D02*
X19212500Y-13841071D01*
X19198214Y-13812500D01*
X19169643Y-13798214D01*
X19112500Y-13798214D01*
X19083928Y-13812500D01*
X19212500Y-13983929D02*
X19183928Y-13998214D01*
X19112500Y-13998214D01*
X19083928Y-13983929D01*
X19069643Y-13955357D01*
X19069643Y-13926786D01*
X19083928Y-13898214D01*
X19112500Y-13883929D01*
X19183928Y-13883929D01*
X19212500Y-13869643D01*
X19312500Y-13798214D02*
X19426786Y-13798214D01*
X19355357Y-13698214D02*
X19355357Y-13955357D01*
X19369643Y-13983929D01*
X19398214Y-13998214D01*
X19426786Y-13998214D01*
X19641071Y-13983929D02*
X19612500Y-13998214D01*
X19555357Y-13998214D01*
X19526786Y-13983929D01*
X19512500Y-13955357D01*
X19512500Y-13841071D01*
X19526786Y-13812500D01*
X19555357Y-13798214D01*
X19612500Y-13798214D01*
X19641071Y-13812500D01*
X19655357Y-13841071D01*
X19655357Y-13869643D01*
X19512500Y-13898214D01*
X19912500Y-13998214D02*
X19912500Y-13698214D01*
X19912500Y-13983929D02*
X19883928Y-13998214D01*
X19826786Y-13998214D01*
X19798214Y-13983929D01*
X19783928Y-13969643D01*
X19769643Y-13941071D01*
X19769643Y-13855357D01*
X19783928Y-13826786D01*
X19798214Y-13812500D01*
X19826786Y-13798214D01*
X19883928Y-13798214D01*
X19912500Y-13812500D01*
X20026786Y-14112500D02*
X20041071Y-14098214D01*
X20069643Y-14055357D01*
X20083928Y-14026786D01*
X20098214Y-13983929D01*
X20112500Y-13912500D01*
X20112500Y-13855357D01*
X20098214Y-13783929D01*
X20083928Y-13741071D01*
X20069643Y-13712500D01*
X20041071Y-13669643D01*
X20026786Y-13655357D01*
X9997500Y-14258500D02*
G75*
G03*
X9997500Y-14258500I-125000J0D01*
G01*
X10269643Y-14122786D02*
X10283928Y-14108500D01*
X10312500Y-14094214D01*
X10383928Y-14094214D01*
X10412500Y-14108500D01*
X10426786Y-14122786D01*
X10441071Y-14151357D01*
X10441071Y-14179929D01*
X10426786Y-14222786D01*
X10255357Y-14394214D01*
X10441071Y-14394214D01*
X10569643Y-14365643D02*
X10583928Y-14379929D01*
X10569643Y-14394214D01*
X10555357Y-14379929D01*
X10569643Y-14365643D01*
X10569643Y-14394214D01*
X10855357Y-14094214D02*
X10712500Y-14094214D01*
X10698214Y-14237071D01*
X10712500Y-14222786D01*
X10741071Y-14208500D01*
X10812500Y-14208500D01*
X10841071Y-14222786D01*
X10855357Y-14237071D01*
X10869643Y-14265643D01*
X10869643Y-14337071D01*
X10855357Y-14365643D01*
X10841071Y-14379929D01*
X10812500Y-14394214D01*
X10741071Y-14394214D01*
X10712500Y-14379929D01*
X10698214Y-14365643D01*
X11055357Y-14094214D02*
X11083928Y-14094214D01*
X11112500Y-14108500D01*
X11126786Y-14122786D01*
X11141071Y-14151357D01*
X11155357Y-14208500D01*
X11155357Y-14279929D01*
X11141071Y-14337071D01*
X11126786Y-14365643D01*
X11112500Y-14379929D01*
X11083928Y-14394214D01*
X11055357Y-14394214D01*
X11026786Y-14379929D01*
X11012500Y-14365643D01*
X10998214Y-14337071D01*
X10983928Y-14279929D01*
X10983928Y-14208500D01*
X10998214Y-14151357D01*
X11012500Y-14122786D01*
X11026786Y-14108500D01*
X11055357Y-14094214D01*
X11341071Y-14094214D02*
X11369643Y-14094214D01*
X11398214Y-14108500D01*
X11412500Y-14122786D01*
X11426786Y-14151357D01*
X11441071Y-14208500D01*
X11441071Y-14279929D01*
X11426786Y-14337071D01*
X11412500Y-14365643D01*
X11398214Y-14379929D01*
X11369643Y-14394214D01*
X11341071Y-14394214D01*
X11312500Y-14379929D01*
X11298214Y-14365643D01*
X11283928Y-14337071D01*
X11269643Y-14279929D01*
X11269643Y-14208500D01*
X11283928Y-14151357D01*
X11298214Y-14122786D01*
X11312500Y-14108500D01*
X11341071Y-14094214D01*
X11569643Y-14394214D02*
X11569643Y-14194214D01*
X11569643Y-14222786D02*
X11583928Y-14208500D01*
X11612500Y-14194214D01*
X11655357Y-14194214D01*
X11683928Y-14208500D01*
X11698214Y-14237071D01*
X11698214Y-14394214D01*
X11698214Y-14237071D02*
X11712500Y-14208500D01*
X11741071Y-14194214D01*
X11783928Y-14194214D01*
X11812500Y-14208500D01*
X11826786Y-14237071D01*
X11826786Y-14394214D01*
X11969643Y-14394214D02*
X11969643Y-14194214D01*
X11969643Y-14222786D02*
X11983928Y-14208500D01*
X12012500Y-14194214D01*
X12055357Y-14194214D01*
X12083928Y-14208500D01*
X12098214Y-14237071D01*
X12098214Y-14394214D01*
X12098214Y-14237071D02*
X12112500Y-14208500D01*
X12141071Y-14194214D01*
X12183928Y-14194214D01*
X12212500Y-14208500D01*
X12226786Y-14237071D01*
X12226786Y-14394214D01*
X12812500Y-14079929D02*
X12555357Y-14465643D01*
X13198214Y-14094214D02*
X13226786Y-14094214D01*
X13255357Y-14108500D01*
X13269643Y-14122786D01*
X13283928Y-14151357D01*
X13298214Y-14208500D01*
X13298214Y-14279929D01*
X13283928Y-14337071D01*
X13269643Y-14365643D01*
X13255357Y-14379929D01*
X13226786Y-14394214D01*
X13198214Y-14394214D01*
X13169643Y-14379929D01*
X13155357Y-14365643D01*
X13141071Y-14337071D01*
X13126786Y-14279929D01*
X13126786Y-14208500D01*
X13141071Y-14151357D01*
X13155357Y-14122786D01*
X13169643Y-14108500D01*
X13198214Y-14094214D01*
X13426786Y-14365643D02*
X13441071Y-14379929D01*
X13426786Y-14394214D01*
X13412500Y-14379929D01*
X13426786Y-14365643D01*
X13426786Y-14394214D01*
X13626786Y-14094214D02*
X13655357Y-14094214D01*
X13683928Y-14108500D01*
X13698214Y-14122786D01*
X13712500Y-14151357D01*
X13726786Y-14208500D01*
X13726786Y-14279929D01*
X13712500Y-14337071D01*
X13698214Y-14365643D01*
X13683928Y-14379929D01*
X13655357Y-14394214D01*
X13626786Y-14394214D01*
X13598214Y-14379929D01*
X13583928Y-14365643D01*
X13569643Y-14337071D01*
X13555357Y-14279929D01*
X13555357Y-14208500D01*
X13569643Y-14151357D01*
X13583928Y-14122786D01*
X13598214Y-14108500D01*
X13626786Y-14094214D01*
X13869643Y-14394214D02*
X13926786Y-14394214D01*
X13955357Y-14379929D01*
X13969643Y-14365643D01*
X13998214Y-14322786D01*
X14012500Y-14265643D01*
X14012500Y-14151357D01*
X13998214Y-14122786D01*
X13983928Y-14108500D01*
X13955357Y-14094214D01*
X13898214Y-14094214D01*
X13869643Y-14108500D01*
X13855357Y-14122786D01*
X13841071Y-14151357D01*
X13841071Y-14222786D01*
X13855357Y-14251357D01*
X13869643Y-14265643D01*
X13898214Y-14279929D01*
X13955357Y-14279929D01*
X13983928Y-14265643D01*
X13998214Y-14251357D01*
X14012500Y-14222786D01*
X14183928Y-14222786D02*
X14155357Y-14208500D01*
X14141071Y-14194214D01*
X14126786Y-14165643D01*
X14126786Y-14151357D01*
X14141071Y-14122786D01*
X14155357Y-14108500D01*
X14183928Y-14094214D01*
X14241071Y-14094214D01*
X14269643Y-14108500D01*
X14283928Y-14122786D01*
X14298214Y-14151357D01*
X14298214Y-14165643D01*
X14283928Y-14194214D01*
X14269643Y-14208500D01*
X14241071Y-14222786D01*
X14183928Y-14222786D01*
X14155357Y-14237071D01*
X14141071Y-14251357D01*
X14126786Y-14279929D01*
X14126786Y-14337071D01*
X14141071Y-14365643D01*
X14155357Y-14379929D01*
X14183928Y-14394214D01*
X14241071Y-14394214D01*
X14269643Y-14379929D01*
X14283928Y-14365643D01*
X14298214Y-14337071D01*
X14298214Y-14279929D01*
X14283928Y-14251357D01*
X14269643Y-14237071D01*
X14241071Y-14222786D01*
X14555357Y-14194214D02*
X14555357Y-14394214D01*
X14483928Y-14079929D02*
X14412500Y-14294214D01*
X14598214Y-14294214D01*
X14698214Y-14094214D02*
X14698214Y-14151357D01*
X14812500Y-14094214D02*
X14812500Y-14151357D01*
X15255357Y-14508500D02*
X15241071Y-14494214D01*
X15212500Y-14451357D01*
X15198214Y-14422786D01*
X15183928Y-14379929D01*
X15169643Y-14308500D01*
X15169643Y-14251357D01*
X15183928Y-14179929D01*
X15198214Y-14137071D01*
X15212500Y-14108500D01*
X15241071Y-14065643D01*
X15255357Y-14051357D01*
X15498214Y-14194214D02*
X15498214Y-14394214D01*
X15426786Y-14079929D02*
X15355357Y-14294214D01*
X15541071Y-14294214D01*
X15883928Y-14394214D02*
X15883928Y-14094214D01*
X16012500Y-14394214D02*
X16012500Y-14237071D01*
X15998214Y-14208500D01*
X15969643Y-14194214D01*
X15926786Y-14194214D01*
X15898214Y-14208500D01*
X15883928Y-14222786D01*
X16198214Y-14394214D02*
X16169643Y-14379929D01*
X16155357Y-14365643D01*
X16141071Y-14337071D01*
X16141071Y-14251357D01*
X16155357Y-14222786D01*
X16169643Y-14208500D01*
X16198214Y-14194214D01*
X16241071Y-14194214D01*
X16269643Y-14208500D01*
X16283928Y-14222786D01*
X16298214Y-14251357D01*
X16298214Y-14337071D01*
X16283928Y-14365643D01*
X16269643Y-14379929D01*
X16241071Y-14394214D01*
X16198214Y-14394214D01*
X16469643Y-14394214D02*
X16441071Y-14379929D01*
X16426786Y-14351357D01*
X16426786Y-14094214D01*
X16698214Y-14379929D02*
X16669643Y-14394214D01*
X16612500Y-14394214D01*
X16583928Y-14379929D01*
X16569643Y-14351357D01*
X16569643Y-14237071D01*
X16583928Y-14208500D01*
X16612500Y-14194214D01*
X16669643Y-14194214D01*
X16698214Y-14208500D01*
X16712500Y-14237071D01*
X16712500Y-14265643D01*
X16569643Y-14294214D01*
X16826786Y-14379929D02*
X16855357Y-14394214D01*
X16912500Y-14394214D01*
X16941071Y-14379929D01*
X16955357Y-14351357D01*
X16955357Y-14337071D01*
X16941071Y-14308500D01*
X16912500Y-14294214D01*
X16869643Y-14294214D01*
X16841071Y-14279929D01*
X16826786Y-14251357D01*
X16826786Y-14237071D01*
X16841071Y-14208500D01*
X16869643Y-14194214D01*
X16912500Y-14194214D01*
X16941071Y-14208500D01*
X17055357Y-14508500D02*
X17069643Y-14494214D01*
X17098214Y-14451357D01*
X17112500Y-14422786D01*
X17126786Y-14379929D01*
X17141071Y-14308500D01*
X17141071Y-14251357D01*
X17126786Y-14179929D01*
X17112500Y-14137071D01*
X17098214Y-14108500D01*
X17069643Y-14065643D01*
X17055357Y-14051357D01*
X17598214Y-14508500D02*
X17583928Y-14494214D01*
X17555357Y-14451357D01*
X17541071Y-14422786D01*
X17526786Y-14379929D01*
X17512500Y-14308500D01*
X17512500Y-14251357D01*
X17526786Y-14179929D01*
X17541071Y-14137071D01*
X17555357Y-14108500D01*
X17583928Y-14065643D01*
X17598214Y-14051357D01*
X17712500Y-14194214D02*
X17712500Y-14394214D01*
X17712500Y-14222786D02*
X17726786Y-14208500D01*
X17755357Y-14194214D01*
X17798214Y-14194214D01*
X17826786Y-14208500D01*
X17841071Y-14237071D01*
X17841071Y-14394214D01*
X18026786Y-14394214D02*
X17998214Y-14379929D01*
X17983928Y-14365643D01*
X17969643Y-14337071D01*
X17969643Y-14251357D01*
X17983928Y-14222786D01*
X17998214Y-14208500D01*
X18026786Y-14194214D01*
X18069643Y-14194214D01*
X18098214Y-14208500D01*
X18112500Y-14222786D01*
X18126786Y-14251357D01*
X18126786Y-14337071D01*
X18112500Y-14365643D01*
X18098214Y-14379929D01*
X18069643Y-14394214D01*
X18026786Y-14394214D01*
X18212500Y-14194214D02*
X18326786Y-14194214D01*
X18255357Y-14094214D02*
X18255357Y-14351357D01*
X18269643Y-14379929D01*
X18298214Y-14394214D01*
X18326786Y-14394214D01*
X18655357Y-14194214D02*
X18655357Y-14494214D01*
X18655357Y-14208500D02*
X18683928Y-14194214D01*
X18741071Y-14194214D01*
X18769643Y-14208500D01*
X18783928Y-14222786D01*
X18798214Y-14251357D01*
X18798214Y-14337071D01*
X18783928Y-14365643D01*
X18769643Y-14379929D01*
X18741071Y-14394214D01*
X18683928Y-14394214D01*
X18655357Y-14379929D01*
X18969643Y-14394214D02*
X18941071Y-14379929D01*
X18926786Y-14351357D01*
X18926786Y-14094214D01*
X19212500Y-14394214D02*
X19212500Y-14237071D01*
X19198214Y-14208500D01*
X19169643Y-14194214D01*
X19112500Y-14194214D01*
X19083928Y-14208500D01*
X19212500Y-14379929D02*
X19183928Y-14394214D01*
X19112500Y-14394214D01*
X19083928Y-14379929D01*
X19069643Y-14351357D01*
X19069643Y-14322786D01*
X19083928Y-14294214D01*
X19112500Y-14279929D01*
X19183928Y-14279929D01*
X19212500Y-14265643D01*
X19312500Y-14194214D02*
X19426786Y-14194214D01*
X19355357Y-14094214D02*
X19355357Y-14351357D01*
X19369643Y-14379929D01*
X19398214Y-14394214D01*
X19426786Y-14394214D01*
X19641071Y-14379929D02*
X19612500Y-14394214D01*
X19555357Y-14394214D01*
X19526786Y-14379929D01*
X19512500Y-14351357D01*
X19512500Y-14237071D01*
X19526786Y-14208500D01*
X19555357Y-14194214D01*
X19612500Y-14194214D01*
X19641071Y-14208500D01*
X19655357Y-14237071D01*
X19655357Y-14265643D01*
X19512500Y-14294214D01*
X19912500Y-14394214D02*
X19912500Y-14094214D01*
X19912500Y-14379929D02*
X19883928Y-14394214D01*
X19826786Y-14394214D01*
X19798214Y-14379929D01*
X19783928Y-14365643D01*
X19769643Y-14337071D01*
X19769643Y-14251357D01*
X19783928Y-14222786D01*
X19798214Y-14208500D01*
X19826786Y-14194214D01*
X19883928Y-14194214D01*
X19912500Y-14208500D01*
X20026786Y-14508500D02*
X20041071Y-14494214D01*
X20069643Y-14451357D01*
X20083928Y-14422786D01*
X20098214Y-14379929D01*
X20112500Y-14308500D01*
X20112500Y-14251357D01*
X20098214Y-14179929D01*
X20083928Y-14137071D01*
X20069643Y-14108500D01*
X20041071Y-14065643D01*
X20026786Y-14051357D01*
X9832500Y-14489500D02*
X9832500Y-14819500D01*
X9667500Y-14654500D02*
X9997500Y-14654500D01*
X10255357Y-14490214D02*
X10441071Y-14490214D01*
X10341071Y-14604500D01*
X10383928Y-14604500D01*
X10412500Y-14618786D01*
X10426786Y-14633071D01*
X10441071Y-14661643D01*
X10441071Y-14733071D01*
X10426786Y-14761643D01*
X10412500Y-14775929D01*
X10383928Y-14790214D01*
X10298214Y-14790214D01*
X10269643Y-14775929D01*
X10255357Y-14761643D01*
X10569643Y-14761643D02*
X10583928Y-14775929D01*
X10569643Y-14790214D01*
X10555357Y-14775929D01*
X10569643Y-14761643D01*
X10569643Y-14790214D01*
X10683928Y-14490214D02*
X10869643Y-14490214D01*
X10769643Y-14604500D01*
X10812500Y-14604500D01*
X10841071Y-14618786D01*
X10855357Y-14633071D01*
X10869643Y-14661643D01*
X10869643Y-14733071D01*
X10855357Y-14761643D01*
X10841071Y-14775929D01*
X10812500Y-14790214D01*
X10726786Y-14790214D01*
X10698214Y-14775929D01*
X10683928Y-14761643D01*
X11055357Y-14490214D02*
X11083928Y-14490214D01*
X11112500Y-14504500D01*
X11126786Y-14518786D01*
X11141071Y-14547357D01*
X11155357Y-14604500D01*
X11155357Y-14675929D01*
X11141071Y-14733071D01*
X11126786Y-14761643D01*
X11112500Y-14775929D01*
X11083928Y-14790214D01*
X11055357Y-14790214D01*
X11026786Y-14775929D01*
X11012500Y-14761643D01*
X10998214Y-14733071D01*
X10983928Y-14675929D01*
X10983928Y-14604500D01*
X10998214Y-14547357D01*
X11012500Y-14518786D01*
X11026786Y-14504500D01*
X11055357Y-14490214D01*
X11341071Y-14490214D02*
X11369643Y-14490214D01*
X11398214Y-14504500D01*
X11412500Y-14518786D01*
X11426786Y-14547357D01*
X11441071Y-14604500D01*
X11441071Y-14675929D01*
X11426786Y-14733071D01*
X11412500Y-14761643D01*
X11398214Y-14775929D01*
X11369643Y-14790214D01*
X11341071Y-14790214D01*
X11312500Y-14775929D01*
X11298214Y-14761643D01*
X11283928Y-14733071D01*
X11269643Y-14675929D01*
X11269643Y-14604500D01*
X11283928Y-14547357D01*
X11298214Y-14518786D01*
X11312500Y-14504500D01*
X11341071Y-14490214D01*
X11569643Y-14790214D02*
X11569643Y-14590214D01*
X11569643Y-14618786D02*
X11583928Y-14604500D01*
X11612500Y-14590214D01*
X11655357Y-14590214D01*
X11683928Y-14604500D01*
X11698214Y-14633071D01*
X11698214Y-14790214D01*
X11698214Y-14633071D02*
X11712500Y-14604500D01*
X11741071Y-14590214D01*
X11783928Y-14590214D01*
X11812500Y-14604500D01*
X11826786Y-14633071D01*
X11826786Y-14790214D01*
X11969643Y-14790214D02*
X11969643Y-14590214D01*
X11969643Y-14618786D02*
X11983928Y-14604500D01*
X12012500Y-14590214D01*
X12055357Y-14590214D01*
X12083928Y-14604500D01*
X12098214Y-14633071D01*
X12098214Y-14790214D01*
X12098214Y-14633071D02*
X12112500Y-14604500D01*
X12141071Y-14590214D01*
X12183928Y-14590214D01*
X12212500Y-14604500D01*
X12226786Y-14633071D01*
X12226786Y-14790214D01*
X12812500Y-14475929D02*
X12555357Y-14861643D01*
X13198214Y-14490214D02*
X13226786Y-14490214D01*
X13255357Y-14504500D01*
X13269643Y-14518786D01*
X13283928Y-14547357D01*
X13298214Y-14604500D01*
X13298214Y-14675929D01*
X13283928Y-14733071D01*
X13269643Y-14761643D01*
X13255357Y-14775929D01*
X13226786Y-14790214D01*
X13198214Y-14790214D01*
X13169643Y-14775929D01*
X13155357Y-14761643D01*
X13141071Y-14733071D01*
X13126786Y-14675929D01*
X13126786Y-14604500D01*
X13141071Y-14547357D01*
X13155357Y-14518786D01*
X13169643Y-14504500D01*
X13198214Y-14490214D01*
X13426786Y-14761643D02*
X13441071Y-14775929D01*
X13426786Y-14790214D01*
X13412500Y-14775929D01*
X13426786Y-14761643D01*
X13426786Y-14790214D01*
X13726786Y-14790214D02*
X13555357Y-14790214D01*
X13641071Y-14790214D02*
X13641071Y-14490214D01*
X13612500Y-14533071D01*
X13583928Y-14561643D01*
X13555357Y-14575929D01*
X13841071Y-14518786D02*
X13855357Y-14504500D01*
X13883928Y-14490214D01*
X13955357Y-14490214D01*
X13983928Y-14504500D01*
X13998214Y-14518786D01*
X14012500Y-14547357D01*
X14012500Y-14575929D01*
X13998214Y-14618786D01*
X13826786Y-14790214D01*
X14012500Y-14790214D01*
X14155357Y-14790214D02*
X14212500Y-14790214D01*
X14241071Y-14775929D01*
X14255357Y-14761643D01*
X14283928Y-14718786D01*
X14298214Y-14661643D01*
X14298214Y-14547357D01*
X14283928Y-14518786D01*
X14269643Y-14504500D01*
X14241071Y-14490214D01*
X14183928Y-14490214D01*
X14155357Y-14504500D01*
X14141071Y-14518786D01*
X14126786Y-14547357D01*
X14126786Y-14618786D01*
X14141071Y-14647357D01*
X14155357Y-14661643D01*
X14183928Y-14675929D01*
X14241071Y-14675929D01*
X14269643Y-14661643D01*
X14283928Y-14647357D01*
X14298214Y-14618786D01*
X14441071Y-14790214D02*
X14498214Y-14790214D01*
X14526786Y-14775929D01*
X14541071Y-14761643D01*
X14569643Y-14718786D01*
X14583928Y-14661643D01*
X14583928Y-14547357D01*
X14569643Y-14518786D01*
X14555357Y-14504500D01*
X14526786Y-14490214D01*
X14469643Y-14490214D01*
X14441071Y-14504500D01*
X14426786Y-14518786D01*
X14412500Y-14547357D01*
X14412500Y-14618786D01*
X14426786Y-14647357D01*
X14441071Y-14661643D01*
X14469643Y-14675929D01*
X14526786Y-14675929D01*
X14555357Y-14661643D01*
X14569643Y-14647357D01*
X14583928Y-14618786D01*
X14698214Y-14490214D02*
X14698214Y-14547357D01*
X14812500Y-14490214D02*
X14812500Y-14547357D01*
X15255357Y-14904500D02*
X15241071Y-14890214D01*
X15212500Y-14847357D01*
X15198214Y-14818786D01*
X15183928Y-14775929D01*
X15169643Y-14704500D01*
X15169643Y-14647357D01*
X15183928Y-14575929D01*
X15198214Y-14533071D01*
X15212500Y-14504500D01*
X15241071Y-14461643D01*
X15255357Y-14447357D01*
X15412500Y-14618786D02*
X15383928Y-14604500D01*
X15369643Y-14590214D01*
X15355357Y-14561643D01*
X15355357Y-14547357D01*
X15369643Y-14518786D01*
X15383928Y-14504500D01*
X15412500Y-14490214D01*
X15469643Y-14490214D01*
X15498214Y-14504500D01*
X15512500Y-14518786D01*
X15526786Y-14547357D01*
X15526786Y-14561643D01*
X15512500Y-14590214D01*
X15498214Y-14604500D01*
X15469643Y-14618786D01*
X15412500Y-14618786D01*
X15383928Y-14633071D01*
X15369643Y-14647357D01*
X15355357Y-14675929D01*
X15355357Y-14733071D01*
X15369643Y-14761643D01*
X15383928Y-14775929D01*
X15412500Y-14790214D01*
X15469643Y-14790214D01*
X15498214Y-14775929D01*
X15512500Y-14761643D01*
X15526786Y-14733071D01*
X15526786Y-14675929D01*
X15512500Y-14647357D01*
X15498214Y-14633071D01*
X15469643Y-14618786D01*
X15883928Y-14790214D02*
X15883928Y-14490214D01*
X16012500Y-14790214D02*
X16012500Y-14633071D01*
X15998214Y-14604500D01*
X15969643Y-14590214D01*
X15926786Y-14590214D01*
X15898214Y-14604500D01*
X15883928Y-14618786D01*
X16198214Y-14790214D02*
X16169643Y-14775929D01*
X16155357Y-14761643D01*
X16141071Y-14733071D01*
X16141071Y-14647357D01*
X16155357Y-14618786D01*
X16169643Y-14604500D01*
X16198214Y-14590214D01*
X16241071Y-14590214D01*
X16269643Y-14604500D01*
X16283928Y-14618786D01*
X16298214Y-14647357D01*
X16298214Y-14733071D01*
X16283928Y-14761643D01*
X16269643Y-14775929D01*
X16241071Y-14790214D01*
X16198214Y-14790214D01*
X16469643Y-14790214D02*
X16441071Y-14775929D01*
X16426786Y-14747357D01*
X16426786Y-14490214D01*
X16698214Y-14775929D02*
X16669643Y-14790214D01*
X16612500Y-14790214D01*
X16583928Y-14775929D01*
X16569643Y-14747357D01*
X16569643Y-14633071D01*
X16583928Y-14604500D01*
X16612500Y-14590214D01*
X16669643Y-14590214D01*
X16698214Y-14604500D01*
X16712500Y-14633071D01*
X16712500Y-14661643D01*
X16569643Y-14690214D01*
X16826786Y-14775929D02*
X16855357Y-14790214D01*
X16912500Y-14790214D01*
X16941071Y-14775929D01*
X16955357Y-14747357D01*
X16955357Y-14733071D01*
X16941071Y-14704500D01*
X16912500Y-14690214D01*
X16869643Y-14690214D01*
X16841071Y-14675929D01*
X16826786Y-14647357D01*
X16826786Y-14633071D01*
X16841071Y-14604500D01*
X16869643Y-14590214D01*
X16912500Y-14590214D01*
X16941071Y-14604500D01*
X17055357Y-14904500D02*
X17069643Y-14890214D01*
X17098214Y-14847357D01*
X17112500Y-14818786D01*
X17126786Y-14775929D01*
X17141071Y-14704500D01*
X17141071Y-14647357D01*
X17126786Y-14575929D01*
X17112500Y-14533071D01*
X17098214Y-14504500D01*
X17069643Y-14461643D01*
X17055357Y-14447357D01*
X17598214Y-14904500D02*
X17583928Y-14890214D01*
X17555357Y-14847357D01*
X17541071Y-14818786D01*
X17526786Y-14775929D01*
X17512500Y-14704500D01*
X17512500Y-14647357D01*
X17526786Y-14575929D01*
X17541071Y-14533071D01*
X17555357Y-14504500D01*
X17583928Y-14461643D01*
X17598214Y-14447357D01*
X17712500Y-14590214D02*
X17712500Y-14790214D01*
X17712500Y-14618786D02*
X17726786Y-14604500D01*
X17755357Y-14590214D01*
X17798214Y-14590214D01*
X17826786Y-14604500D01*
X17841071Y-14633071D01*
X17841071Y-14790214D01*
X18026786Y-14790214D02*
X17998214Y-14775929D01*
X17983928Y-14761643D01*
X17969643Y-14733071D01*
X17969643Y-14647357D01*
X17983928Y-14618786D01*
X17998214Y-14604500D01*
X18026786Y-14590214D01*
X18069643Y-14590214D01*
X18098214Y-14604500D01*
X18112500Y-14618786D01*
X18126786Y-14647357D01*
X18126786Y-14733071D01*
X18112500Y-14761643D01*
X18098214Y-14775929D01*
X18069643Y-14790214D01*
X18026786Y-14790214D01*
X18212500Y-14590214D02*
X18326786Y-14590214D01*
X18255357Y-14490214D02*
X18255357Y-14747357D01*
X18269643Y-14775929D01*
X18298214Y-14790214D01*
X18326786Y-14790214D01*
X18655357Y-14590214D02*
X18655357Y-14890214D01*
X18655357Y-14604500D02*
X18683928Y-14590214D01*
X18741071Y-14590214D01*
X18769643Y-14604500D01*
X18783928Y-14618786D01*
X18798214Y-14647357D01*
X18798214Y-14733071D01*
X18783928Y-14761643D01*
X18769643Y-14775929D01*
X18741071Y-14790214D01*
X18683928Y-14790214D01*
X18655357Y-14775929D01*
X18969643Y-14790214D02*
X18941071Y-14775929D01*
X18926786Y-14747357D01*
X18926786Y-14490214D01*
X19212500Y-14790214D02*
X19212500Y-14633071D01*
X19198214Y-14604500D01*
X19169643Y-14590214D01*
X19112500Y-14590214D01*
X19083928Y-14604500D01*
X19212500Y-14775929D02*
X19183928Y-14790214D01*
X19112500Y-14790214D01*
X19083928Y-14775929D01*
X19069643Y-14747357D01*
X19069643Y-14718786D01*
X19083928Y-14690214D01*
X19112500Y-14675929D01*
X19183928Y-14675929D01*
X19212500Y-14661643D01*
X19312500Y-14590214D02*
X19426786Y-14590214D01*
X19355357Y-14490214D02*
X19355357Y-14747357D01*
X19369643Y-14775929D01*
X19398214Y-14790214D01*
X19426786Y-14790214D01*
X19641071Y-14775929D02*
X19612500Y-14790214D01*
X19555357Y-14790214D01*
X19526786Y-14775929D01*
X19512500Y-14747357D01*
X19512500Y-14633071D01*
X19526786Y-14604500D01*
X19555357Y-14590214D01*
X19612500Y-14590214D01*
X19641071Y-14604500D01*
X19655357Y-14633071D01*
X19655357Y-14661643D01*
X19512500Y-14690214D01*
X19912500Y-14790214D02*
X19912500Y-14490214D01*
X19912500Y-14775929D02*
X19883928Y-14790214D01*
X19826786Y-14790214D01*
X19798214Y-14775929D01*
X19783928Y-14761643D01*
X19769643Y-14733071D01*
X19769643Y-14647357D01*
X19783928Y-14618786D01*
X19798214Y-14604500D01*
X19826786Y-14590214D01*
X19883928Y-14590214D01*
X19912500Y-14604500D01*
X20026786Y-14904500D02*
X20041071Y-14890214D01*
X20069643Y-14847357D01*
X20083928Y-14818786D01*
X20098214Y-14775929D01*
X20112500Y-14704500D01*
X20112500Y-14647357D01*
X20098214Y-14575929D01*
X20083928Y-14533071D01*
X20069643Y-14504500D01*
X20041071Y-14461643D01*
X20026786Y-14447357D01*
M02*
