%TF.GenerationSoftware,KiCad,Pcbnew,5.99.0+really5.1.12+dfsg1-1*%
%TF.CreationDate,2022-01-12T10:46:10+01:00*%
%TF.ProjectId,ba-imu,62612d69-6d75-42e6-9b69-6361645f7063,v01*%
%TF.SameCoordinates,Original*%
%TF.FileFunction,Soldermask,Bot*%
%TF.FilePolarity,Negative*%
%FSLAX46Y46*%
G04 Gerber Fmt 4.6, Leading zero omitted, Abs format (unit mm)*
G04 Created by KiCad (PCBNEW 5.99.0+really5.1.12+dfsg1-1) date 2022-01-12 10:46:10*
%MOMM*%
%LPD*%
G01*
G04 APERTURE LIST*
%ADD10R,1.500000X1.050000*%
%ADD11O,1.500000X1.050000*%
%ADD12C,2.000000*%
%ADD13R,2.000000X2.000000*%
%ADD14C,3.300000*%
%ADD15C,1.870000*%
%ADD16C,2.500000*%
%ADD17C,1.000000*%
%ADD18R,1.600000X1.600000*%
%ADD19C,1.600000*%
%ADD20O,1.700000X1.950000*%
%ADD21O,1.700000X1.700000*%
%ADD22R,1.700000X1.700000*%
G04 APERTURE END LIST*
D10*
X169143680Y-113766600D03*
D11*
X169143680Y-116306600D03*
X169143680Y-115036600D03*
D12*
X109343200Y-95554800D03*
D13*
X104343200Y-95554800D03*
D14*
X160619440Y-124777500D03*
X135219440Y-124777500D03*
X135219440Y-99377500D03*
X160619440Y-99377500D03*
D15*
X139029440Y-98107500D03*
X141569440Y-98107500D03*
X144109440Y-98107500D03*
X146649440Y-98107500D03*
X149189440Y-98107500D03*
X151729440Y-98107500D03*
X154269440Y-98107500D03*
G36*
G01*
X157744440Y-97640000D02*
X157744440Y-98575000D01*
G75*
G02*
X157276940Y-99042500I-467500J0D01*
G01*
X156341940Y-99042500D01*
G75*
G02*
X155874440Y-98575000I0J467500D01*
G01*
X155874440Y-97640000D01*
G75*
G02*
X156341940Y-97172500I467500J0D01*
G01*
X157276940Y-97172500D01*
G75*
G02*
X157744440Y-97640000I0J-467500D01*
G01*
G37*
D16*
X196250000Y-53750000D03*
X196250000Y-111750000D03*
X103750000Y-111750000D03*
X103750000Y-53750000D03*
D17*
X112585500Y-87376000D03*
X107505500Y-87376000D03*
D18*
X107505500Y-84836000D03*
D19*
X110045500Y-84836000D03*
X112585500Y-84836000D03*
X188468000Y-60000000D03*
X185928000Y-60000000D03*
D18*
X183388000Y-60000000D03*
D17*
X183388000Y-62540000D03*
X188468000Y-62540000D03*
D19*
X112585500Y-60000000D03*
X110045500Y-60000000D03*
D18*
X107505500Y-60000000D03*
D17*
X107505500Y-62540000D03*
X112585500Y-62540000D03*
X188468000Y-87376000D03*
X183388000Y-87376000D03*
D18*
X183388000Y-84836000D03*
D19*
X185928000Y-84836000D03*
X188468000Y-84836000D03*
D20*
X127070500Y-124841000D03*
X124570500Y-124841000D03*
X122070500Y-124841000D03*
G36*
G01*
X118720500Y-125566000D02*
X118720500Y-124116000D01*
G75*
G02*
X118970500Y-123866000I250000J0D01*
G01*
X120170500Y-123866000D01*
G75*
G02*
X120420500Y-124116000I0J-250000D01*
G01*
X120420500Y-125566000D01*
G75*
G02*
X120170500Y-125816000I-250000J0D01*
G01*
X118970500Y-125816000D01*
G75*
G02*
X118720500Y-125566000I0J250000D01*
G01*
G37*
D14*
X123218100Y-54973220D03*
X123218100Y-86723220D03*
X176558100Y-54973220D03*
X176558100Y-86723220D03*
D15*
X177838100Y-59418220D03*
X177838100Y-61958220D03*
X177838100Y-64498220D03*
X177838100Y-67038220D03*
X177838100Y-69578220D03*
X177838100Y-72118220D03*
X177838100Y-74658220D03*
X177838100Y-77198220D03*
X177838100Y-79738220D03*
G36*
G01*
X178305600Y-83213220D02*
X177370600Y-83213220D01*
G75*
G02*
X176903100Y-82745720I0J467500D01*
G01*
X176903100Y-81810720D01*
G75*
G02*
X177370600Y-81343220I467500J0D01*
G01*
X178305600Y-81343220D01*
G75*
G02*
X178773100Y-81810720I0J-467500D01*
G01*
X178773100Y-82745720D01*
G75*
G02*
X178305600Y-83213220I-467500J0D01*
G01*
G37*
D21*
X194730000Y-58470000D03*
X197270000Y-58470000D03*
X194730000Y-61010000D03*
X197270000Y-61010000D03*
X194730000Y-63550000D03*
X197270000Y-63550000D03*
X194730000Y-66090000D03*
X197270000Y-66090000D03*
X194730000Y-68630000D03*
X197270000Y-68630000D03*
X194730000Y-71170000D03*
X197270000Y-71170000D03*
X194730000Y-73710000D03*
X197270000Y-73710000D03*
X194730000Y-76250000D03*
X197270000Y-76250000D03*
X194730000Y-78790000D03*
X197270000Y-78790000D03*
X194730000Y-81330000D03*
X197270000Y-81330000D03*
X194730000Y-83870000D03*
X197270000Y-83870000D03*
X194730000Y-86410000D03*
X197270000Y-86410000D03*
X194730000Y-88950000D03*
X197270000Y-88950000D03*
X194730000Y-91490000D03*
X197270000Y-91490000D03*
X194730000Y-94030000D03*
X197270000Y-94030000D03*
X194730000Y-96570000D03*
X197270000Y-96570000D03*
X194730000Y-99110000D03*
X197270000Y-99110000D03*
X194730000Y-101650000D03*
X197270000Y-101650000D03*
X194730000Y-104190000D03*
X197270000Y-104190000D03*
X194730000Y-106730000D03*
D22*
X197270000Y-106730000D03*
M02*
